<!DOCTYPE svg PUBLIC "-//W3C//DTD SVG 20010904//EN" "http://www.w3.org/TR/2001/REC-SVG-20010904/DTD/svg10.dtd">
<svg version="1.0" xmlns="http://www.w3.org/2000/svg" width="400px" height="400px" viewBox="0 0 4000 4000" preserveAspectRatio="xMidYMid meet">
<g id="layer101" fill="#050505" stroke="none">
 <path d="M0 2000 l0 -2000 2000 0 2000 0 0 2000 0 2000 -2000 0 -2000 0 0 -2000z"/>
 </g>
<g id="layer102" fill="#008000" stroke="none">
 <path d="M0 2000 l0 -2000 2000 0 2000 0 0 2000 0 2000 -2000 0 -2000 0 0 -2000z m2740 660 c13 -47 10 -107 -5 -100 -5 3 -9 24 -7 47 4 51 -16 92 -59 126 -21 16 -29 29 -24 37 13 20 82 -60 95 -110z m360 94 c50 -43 60 -72 60 -184 0 -60 -4 -100 -10 -100 -6 0 -10 37 -10 90 0 108 -14 149 -64 182 -20 14 -33 28 -29 31 11 12 20 8 53 -19z m635 -12 c27 -21 60 -53 73 -72 26 -39 56 -135 47 -150 -3 -5 -38 -10 -76 -10 -69 0 -69 0 -63 -25 10 -40 -11 -29 -32 17 -10 22 -31 58 -46 79 -30 42 -33 49 -19 49 5 0 26 -22 46 -50 l37 -50 59 0 c71 0 77 9 50 72 -25 58 -74 114 -123 139 -21 11 -36 24 -33 29 11 17 29 11 80 -28z m-2663 -65 c38 -75 -1 -161 -87 -190 -41 -14 -50 -14 -92 0 -58 19 -79 37 -104 85 -32 63 -21 133 25 163 45 30 83 -13 106 -120 5 -28 13 -61 16 -73 3 -16 1 -23 -8 -20 -6 2 -18 35 -25 72 -19 107 -59 151 -95 107 -35 -45 -13 -132 44 -173 39 -27 123 -30 162 -5 75 50 55 170 -34 207 -24 10 -28 16 -19 26 16 20 85 -30 111 -79z m-587 57 c23 -24 33 -54 20 -54 -3 0 -16 12 -28 26 -28 32 -54 24 -63 -20 -3 -18 -4 -70 -2 -114 2 -52 -1 -81 -7 -79 -6 2 -10 48 -10 108 0 84 4 110 18 132 22 34 41 34 72 1z m1135 4 c59 -17 119 -57 150 -100 29 -39 38 -69 23 -67 -5 0 -25 23 -46 51 -42 54 -107 91 -184 103 -30 5 -40 10 -36 21 5 14 21 13 93 -8z m384 -10 c69 -37 156 -116 156 -141 0 -9 -1 -17 -3 -17 -1 0 -32 29 -68 64 -45 44 -81 69 -119 83 -54 20 -77 43 -45 43 10 0 45 -15 79 -32z m1374 0 c79 -30 179 -125 155 -149 -6 -6 -20 5 -38 31 -38 54 -106 97 -176 111 -40 8 -59 16 -59 26 0 17 36 12 118 -19z m-3058 2 c0 -6 -41 -10 -104 -10 -111 0 -134 -9 -123 -50 3 -13 0 -20 -9 -20 -19 0 -18 54 2 74 12 13 39 16 125 16 66 0 109 -4 109 -10z m1130 -20 c0 -6 -28 -10 -65 -10 l-65 0 0 -85 0 -85 51 0 c36 0 49 -4 47 -12 -3 -9 -35 -13 -113 -13 -78 0 -110 4 -112 13 -4 9 11 12 51 12 l56 0 0 85 0 85 -70 0 c-40 0 -70 4 -70 10 0 6 55 10 145 10 90 0 145 -4 145 -10z m1013 -17 c-46 -2 -120 -2 -165 0 -46 1 -9 3 82 3 91 0 128 -2 83 -3z m-1778 -63 c-19 -53 -41 -94 -60 -110 -24 -20 -29 -4 -7 27 10 15 25 46 31 68 7 22 14 46 16 52 3 7 11 10 19 7 13 -5 13 -11 1 -44z m2315 -65 c0 -50 -4 -85 -10 -85 -6 0 -10 35 -10 85 0 50 4 85 10 85 6 0 10 -35 10 -85z m-1060 36 c0 -12 -40 -41 -57 -41 -21 0 -15 14 15 32 31 20 42 22 42 9z m898 -42 c28 -29 52 -56 52 -60 0 -5 -67 -9 -150 -9 -121 0 -150 3 -150 14 0 11 24 13 132 8 l132 -5 -22 28 c-13 16 -32 35 -42 42 -20 14 -27 33 -12 33 4 0 31 -23 60 -51z m-1257 -41 c-24 -21 -36 -27 -44 -19 -8 8 -2 19 23 40 48 41 68 21 21 -21z m1764 33 c3 -5 -11 -22 -30 -37 -27 -20 -39 -24 -47 -16 -7 7 -10 13 -7 15 68 52 73 54 84 38z m-865 -26 c0 -12 -19 -15 -110 -15 -91 0 -110 3 -110 15 0 12 19 15 110 15 91 0 110 -3 110 -15z m-486 -14 c7 -11 -61 -47 -71 -37 -9 8 35 45 54 46 6 0 14 -4 17 -9z m-1714 -11 c0 -6 -38 -10 -95 -10 -57 0 -95 4 -95 10 0 6 38 10 95 10 57 0 95 -4 95 -10z m1825 -10 c-10 -11 -23 -20 -28 -20 -6 0 -2 9 8 20 10 11 23 20 28 20 6 0 2 -9 -8 -20z m1775 -3 c0 -2 -10 -12 -22 -23 l-23 -19 19 23 c18 21 26 27 26 19z m-1745 -27 c-10 -11 -20 -18 -23 -15 -7 6 18 35 31 35 5 0 2 -9 -8 -20z m1780 -10 c-10 -11 -20 -18 -23 -15 -7 6 18 35 31 35 5 0 2 -9 -8 -20z"/>
 </g>
<g id="layer103" fill="#303030" stroke="none">
 <path d="M0 2000 l0 -2000 2000 0 2000 0 0 2000 0 2000 -2000 0 -2000 0 0 -2000z m2740 660 c13 -47 10 -107 -5 -100 -5 3 -9 24 -7 47 4 51 -16 92 -59 126 -21 16 -29 29 -24 37 13 20 82 -60 95 -110z m360 94 c50 -43 60 -72 60 -184 0 -60 -4 -100 -10 -100 -6 0 -10 37 -10 90 0 108 -14 149 -64 182 -20 14 -33 28 -29 31 11 12 20 8 53 -19z m635 -12 c27 -21 60 -53 73 -72 26 -39 56 -135 47 -150 -3 -5 -38 -10 -76 -10 -69 0 -69 0 -63 -25 10 -40 -11 -29 -32 17 -10 22 -31 58 -46 79 -30 42 -33 49 -19 49 5 0 26 -22 46 -50 l37 -50 59 0 c71 0 77 9 50 72 -25 58 -74 114 -123 139 -21 11 -36 24 -33 29 11 17 29 11 80 -28z m-2663 -65 c38 -75 -1 -161 -87 -190 -41 -14 -50 -14 -92 0 -58 19 -79 37 -104 85 -32 63 -21 133 25 163 45 30 83 -13 106 -120 5 -28 13 -61 16 -73 3 -16 1 -23 -8 -20 -6 2 -18 35 -25 72 -19 107 -59 151 -95 107 -35 -45 -13 -132 44 -173 39 -27 123 -30 162 -5 75 50 55 170 -34 207 -24 10 -28 16 -19 26 16 20 85 -30 111 -79z m-587 57 c23 -24 33 -54 20 -54 -3 0 -16 12 -28 26 -28 32 -54 24 -63 -20 -3 -18 -4 -70 -2 -114 2 -52 -1 -81 -7 -79 -6 2 -10 48 -10 108 0 84 4 110 18 132 22 34 41 34 72 1z m1135 4 c59 -17 119 -57 150 -100 29 -39 38 -69 23 -67 -5 0 -25 23 -46 51 -42 54 -107 91 -184 103 -30 5 -40 10 -36 21 5 14 21 13 93 -8z m384 -10 c69 -37 156 -116 156 -141 0 -9 -1 -17 -3 -17 -1 0 -32 29 -68 64 -45 44 -81 69 -119 83 -54 20 -77 43 -45 43 10 0 45 -15 79 -32z m1374 0 c79 -30 179 -125 155 -149 -6 -6 -20 5 -38 31 -38 54 -106 97 -176 111 -40 8 -59 16 -59 26 0 17 36 12 118 -19z m-3058 2 c0 -6 -41 -10 -104 -10 -111 0 -134 -9 -123 -50 3 -13 0 -20 -9 -20 -19 0 -18 54 2 74 12 13 39 16 125 16 66 0 109 -4 109 -10z m1130 -20 c0 -6 -28 -10 -65 -10 l-65 0 0 -85 0 -85 51 0 c36 0 49 -4 47 -12 -3 -9 -35 -13 -113 -13 -78 0 -110 4 -112 13 -4 9 11 12 51 12 l56 0 0 85 0 85 -70 0 c-40 0 -70 4 -70 10 0 6 55 10 145 10 90 0 145 -4 145 -10z m1013 -17 c-46 -2 -120 -2 -165 0 -46 1 -9 3 82 3 91 0 128 -2 83 -3z m-1778 -63 c-19 -53 -41 -94 -60 -110 -24 -20 -29 -4 -7 27 10 15 25 46 31 68 7 22 14 46 16 52 3 7 11 10 19 7 13 -5 13 -11 1 -44z m2315 -65 c0 -50 -4 -85 -10 -85 -6 0 -10 35 -10 85 0 50 4 85 10 85 6 0 10 -35 10 -85z m-1060 36 c0 -12 -40 -41 -57 -41 -21 0 -15 14 15 32 31 20 42 22 42 9z m898 -42 c28 -29 52 -56 52 -60 0 -5 -67 -9 -150 -9 -121 0 -150 3 -150 14 0 11 24 13 132 8 l132 -5 -22 28 c-13 16 -32 35 -42 42 -20 14 -27 33 -12 33 4 0 31 -23 60 -51z m-1257 -41 c-24 -21 -36 -27 -44 -19 -8 8 -2 19 23 40 48 41 68 21 21 -21z m1764 33 c3 -5 -11 -22 -30 -37 -27 -20 -39 -24 -47 -16 -7 7 -10 13 -7 15 68 52 73 54 84 38z m-865 -26 c0 -12 -19 -15 -110 -15 -91 0 -110 3 -110 15 0 12 19 15 110 15 91 0 110 -3 110 -15z m-486 -14 c7 -11 -61 -47 -71 -37 -9 8 35 45 54 46 6 0 14 -4 17 -9z m-1714 -11 c0 -6 -38 -10 -95 -10 -57 0 -95 4 -95 10 0 6 38 10 95 10 57 0 95 -4 95 -10z m1825 -10 c-10 -11 -23 -20 -28 -20 -6 0 -2 9 8 20 10 11 23 20 28 20 6 0 2 -9 -8 -20z m1775 -3 c0 -2 -10 -12 -22 -23 l-23 -19 19 23 c18 21 26 27 26 19z m-1745 -27 c-10 -11 -20 -18 -23 -15 -7 6 18 35 31 35 5 0 2 -9 -8 -20z m1780 -10 c-10 -11 -20 -18 -23 -15 -7 6 18 35 31 35 5 0 2 -9 -8 -20z m-2829 -198 c13 -9 46 -109 46 -140 0 -12 4 -25 9 -28 4 -2 6 -11 3 -18 -3 -8 -1 -17 5 -20 6 -4 8 -13 5 -20 -3 -8 0 -17 5 -21 6 -3 9 -11 5 -16 -3 -5 0 -16 6 -24 6 -8 9 -18 6 -23 -5 -8 20 -118 32 -137 3 -5 7 -21 9 -36 1 -15 10 -48 18 -74 9 -26 18 -59 20 -73 1 -15 4 -27 5 -27 3 0 10 -47 11 -67 0 -10 4 -20 9 -23 5 -3 7 -12 4 -19 -3 -8 0 -17 5 -21 6 -3 9 -11 5 -16 -3 -5 0 -16 6 -24 20 -24 1 -35 -60 -35 -69 0 -80 10 -100 98 -7 28 -16 54 -20 57 -7 4 -13 30 -26 105 -1 8 -9 38 -17 67 -8 28 -12 54 -10 57 3 3 1 12 -5 19 -7 8 -9 17 -5 20 3 4 1 13 -6 20 -6 8 -9 21 -5 30 3 8 1 18 -5 21 -6 4 -8 13 -5 20 3 8 0 17 -5 21 -6 3 -9 11 -6 16 4 5 3 14 -1 21 -4 7 -9 22 -10 33 -1 12 -12 57 -24 101 l-22 79 -83 -3 c-81 -4 -83 -3 -103 25 -15 21 -18 33 -11 46 9 15 28 17 157 17 81 0 152 -4 158 -8z m593 -5 c8 -11 5 -19 -14 -37 -14 -13 -25 -27 -25 -31 0 -5 -16 -24 -35 -43 -19 -20 -35 -39 -35 -42 0 -4 -15 -21 -33 -38 -19 -17 -36 -36 -38 -43 -2 -6 -15 -14 -29 -18 -20 -5 -35 2 -70 34 l-45 40 28 29 c15 15 27 33 27 39 0 7 14 21 30 33 17 12 30 26 30 31 0 6 12 21 28 34 23 21 37 24 98 25 48 0 75 -4 83 -13z m236 -9 c4 -13 7 -28 6 -35 -1 -6 3 -14 9 -18 16 -10 12 -42 -6 -49 -46 -17 -153 1 -139 24 3 6 1 26 -4 46 -6 21 -8 41 -5 46 3 4 34 8 68 8 57 0 64 -2 71 -22z m831 15 c19 -13 25 -60 10 -72 -10 -9 -88 -11 -275 -9 -197 2 -262 0 -265 -9 -3 -7 6 -44 19 -82 14 -39 25 -81 25 -93 0 -13 7 -42 15 -66 9 -24 13 -48 10 -53 -8 -12 -142 -12 -149 0 -3 5 -8 25 -10 44 -3 20 -10 55 -17 79 -7 24 -12 47 -10 52 1 4 -3 14 -9 20 -5 7 -7 16 -4 19 3 3 2 12 -2 19 -4 7 -9 19 -11 28 -1 8 -5 29 -9 47 -5 26 -1 36 21 57 l26 24 312 1 c172 1 317 -2 323 -6z m300 -38 c7 -24 8 -49 3 -63 -7 -19 -15 -22 -61 -22 -29 0 -58 4 -63 8 -26 18 -45 99 -28 116 4 4 36 6 72 4 l65 -3 12 -40z m-1794 -177 c11 -7 51 -32 87 -55 36 -24 74 -43 84 -43 9 0 17 -5 17 -11 0 -5 15 -17 33 -25 36 -17 50 -25 127 -75 30 -20 75 -45 100 -57 99 -46 102 -72 10 -72 -66 0 -94 10 -161 57 -26 18 -51 33 -56 33 -6 0 -16 7 -23 15 -7 8 -40 28 -74 44 -33 16 -74 39 -89 52 -78 65 -87 77 -87 113 0 40 1 41 32 24z m1560 -60 c7 -13 11 -28 10 -35 -1 -6 2 -14 7 -18 6 -3 8 -12 5 -19 -3 -8 0 -17 5 -21 6 -3 9 -11 6 -16 -4 -5 -3 -14 1 -20 4 -6 7 -34 7 -63 0 -83 2 -83 -363 -85 -188 -1 -310 1 -310 7 0 5 -3 24 -6 41 l-6 31 259 0 c202 0 263 3 278 13 12 9 14 16 7 21 -6 4 -9 13 -6 20 3 8 0 17 -5 21 -6 3 -9 10 -6 15 3 5 1 19 -5 30 -10 19 -20 20 -166 20 l-154 0 -11 27 c-20 52 -18 53 220 53 218 0 220 0 233 -22z"/>
 </g>
<g id="layer104" fill="#505050" stroke="none">
 <path d="M0 2000 l0 -2000 2000 0 2000 0 0 2000 0 2000 -2000 0 -2000 0 0 -2000z m2731 693 c13 -26 22 -56 22 -66 -1 -13 3 -16 15 -13 22 7 135 -103 124 -120 -11 -17 -302 -6 -302 12 0 10 25 12 125 7 76 -4 125 -2 125 3 0 15 -75 85 -83 78 -4 -4 -7 -16 -7 -26 0 -11 -5 -18 -12 -15 -8 2 -13 24 -13 58 0 62 -22 102 -67 125 -24 12 -27 18 -18 30 18 21 63 -15 91 -73z m364 71 c49 -32 59 -62 65 -182 4 -86 2 -112 -7 -112 -10 0 -13 25 -13 91 0 50 -5 100 -11 112 -18 34 -52 68 -77 78 -24 9 -22 29 4 29 8 0 25 -7 39 -16z m632 -13 c46 -33 113 -111 113 -132 1 -8 7 -31 14 -51 18 -50 7 -58 -76 -58 l-68 0 10 -26 c8 -21 7 -25 -6 -22 -9 2 -20 10 -24 18 -31 64 -46 88 -68 107 -21 18 -24 25 -15 34 15 15 44 -8 71 -53 15 -26 21 -28 84 -28 75 0 74 -4 36 77 -28 60 -53 89 -104 119 -24 14 -41 30 -38 35 9 16 30 10 71 -20z m-2716 -4 c92 -62 104 -163 27 -234 -73 -67 -204 -36 -254 59 -30 57 -7 170 37 181 37 10 73 -38 104 -137 21 -71 24 -91 14 -97 -27 -16 0 -20 37 -4 53 22 73 42 80 83 11 56 -13 89 -105 148 -5 4 10 24 18 24 4 0 23 -10 42 -23z m1074 -67 c53 -41 92 -95 76 -104 -5 -4 -34 19 -65 49 -48 49 -107 84 -180 109 -15 5 -16 9 -6 21 10 12 20 11 68 -11 31 -14 79 -42 107 -64z m-1588 41 c18 -26 20 -37 12 -45 -8 -8 -13 -7 -16 1 -3 7 -13 23 -23 35 -18 22 -19 22 -37 5 -15 -15 -18 -35 -18 -125 0 -87 -3 -107 -15 -110 -13 -2 -15 12 -12 90 3 119 9 154 29 173 23 24 54 14 80 -24z m1152 12 c86 -34 197 -163 142 -163 -5 0 -19 16 -32 35 -43 63 -104 98 -211 120 -16 3 -28 12 -28 21 0 12 8 14 48 8 26 -3 63 -13 81 -21z m1738 -4 c84 -35 163 -118 149 -154 -7 -20 -26 -19 -26 1 0 9 -22 38 -49 64 -49 47 -102 73 -173 85 -27 4 -36 10 -31 20 7 19 68 11 130 -16z m-3067 6 c0 -12 -18 -15 -104 -15 -111 0 -134 -9 -121 -50 5 -14 2 -20 -10 -20 -13 0 -16 8 -13 37 4 52 30 63 151 63 80 0 97 -3 97 -15z m1140 -25 c0 -5 -30 -10 -67 -12 l-68 -3 0 -80 0 -80 58 -3 c40 -2 57 -7 54 -15 -2 -8 -40 -12 -127 -12 -87 0 -125 4 -127 12 -3 8 14 13 54 15 l58 3 0 80 0 80 -67 3 c-38 2 -68 7 -68 12 0 6 61 10 150 10 89 0 150 -4 150 -10z m1080 -5 c0 -13 -24 -15 -160 -15 -136 0 -160 2 -160 15 0 13 24 15 160 15 136 0 160 -2 160 -15z m-1843 -41 c7 -20 -65 -164 -83 -164 -24 0 -23 16 1 53 14 19 30 56 37 81 12 46 33 60 45 30z m2305 -99 c2 -63 0 -85 -9 -85 -10 0 -13 24 -13 85 0 47 4 85 9 85 5 0 11 -38 13 -85z m-1057 36 c0 -6 -14 -21 -32 -32 -43 -27 -58 -5 -17 28 30 24 49 25 49 4z m-336 -45 c17 -20 -54 -75 -72 -57 -9 10 -4 19 23 41 42 35 35 33 49 16z m1736 3 c15 -23 -59 -79 -78 -60 -8 8 -2 19 23 41 39 32 46 35 55 19z m-865 -34 c0 -12 -19 -15 -110 -15 -91 0 -110 3 -110 15 0 12 19 15 110 15 91 0 110 -3 110 -15z m-486 -13 c7 -11 -48 -52 -69 -52 -24 0 -17 24 13 42 30 19 48 22 56 10z m105 -28 c-15 -16 -26 -21 -32 -15 -7 7 -2 17 14 30 32 26 46 15 18 -15z m-1814 16 c4 -6 -30 -10 -94 -10 -61 0 -101 4 -101 10 0 6 38 10 94 10 53 0 98 -4 101 -10z m3583 -37 c-13 -14 -24 -19 -26 -13 -5 15 28 51 40 44 5 -3 -1 -17 -14 -31z m-1728 -8 c-7 -8 -19 -15 -28 -15 -12 0 -10 6 9 26 24 26 41 16 19 -11z m1790 18 c0 -10 -32 -43 -42 -43 -5 0 -1 11 9 25 17 23 33 32 33 18z m-2844 -221 c13 -9 46 -109 46 -140 0 -12 4 -25 9 -28 4 -2 6 -11 3 -18 -3 -8 -1 -17 5 -20 6 -4 8 -13 5 -20 -3 -8 0 -17 5 -21 6 -3 9 -11 5 -16 -3 -5 0 -16 6 -24 6 -8 9 -18 6 -23 -5 -8 20 -118 32 -137 3 -5 7 -21 9 -36 1 -15 10 -48 18 -74 9 -26 18 -59 20 -73 1 -15 4 -27 5 -27 3 0 10 -47 11 -67 0 -10 4 -20 9 -23 5 -3 7 -12 4 -19 -3 -8 0 -17 5 -21 6 -3 9 -11 5 -16 -3 -5 0 -16 6 -24 20 -24 1 -35 -60 -35 -69 0 -80 10 -100 98 -7 28 -16 54 -20 57 -7 4 -13 30 -26 105 -1 8 -9 38 -17 67 -8 28 -12 54 -10 57 3 3 1 12 -5 19 -7 8 -9 17 -5 20 3 4 1 13 -6 20 -6 8 -9 21 -5 30 3 8 1 18 -5 21 -6 4 -8 13 -5 20 3 8 0 17 -5 21 -6 3 -9 11 -6 16 4 5 3 14 -1 21 -4 7 -9 22 -10 33 -1 12 -12 57 -24 101 l-22 79 -83 -3 c-81 -4 -83 -3 -103 25 -15 21 -18 33 -11 46 9 15 28 17 157 17 81 0 152 -4 158 -8z m593 -5 c8 -11 5 -19 -14 -37 -14 -13 -25 -27 -25 -31 0 -5 -16 -24 -35 -43 -19 -20 -35 -39 -35 -42 0 -4 -15 -21 -33 -38 -19 -17 -36 -36 -38 -43 -2 -6 -15 -14 -29 -18 -20 -5 -35 2 -70 34 l-45 40 28 29 c15 15 27 33 27 39 0 7 14 21 30 33 17 12 30 26 30 31 0 6 12 21 28 34 23 21 37 24 98 25 48 0 75 -4 83 -13z m236 -9 c4 -13 7 -28 6 -35 -1 -6 3 -14 9 -18 16 -10 12 -42 -6 -49 -46 -17 -153 1 -139 24 3 6 1 26 -4 46 -6 21 -8 41 -5 46 3 4 34 8 68 8 57 0 64 -2 71 -22z m831 15 c19 -13 25 -60 10 -72 -10 -9 -88 -11 -275 -9 -197 2 -262 0 -265 -9 -3 -7 6 -44 19 -82 14 -39 25 -81 25 -93 0 -13 7 -42 15 -66 9 -24 13 -48 10 -53 -8 -12 -142 -12 -149 0 -3 5 -8 25 -10 44 -3 20 -10 55 -17 79 -7 24 -12 47 -10 52 1 4 -3 14 -9 20 -5 7 -7 16 -4 19 3 3 2 12 -2 19 -4 7 -9 19 -11 28 -1 8 -5 29 -9 47 -5 26 -1 36 21 57 l26 24 312 1 c172 1 317 -2 323 -6z m300 -38 c7 -24 8 -49 3 -63 -7 -19 -15 -22 -61 -22 -29 0 -58 4 -63 8 -26 18 -45 99 -28 116 4 4 36 6 72 4 l65 -3 12 -40z m-1794 -177 c11 -7 51 -32 87 -55 36 -24 74 -43 84 -43 9 0 17 -5 17 -11 0 -5 15 -17 33 -25 36 -17 50 -25 127 -75 30 -20 75 -45 100 -57 99 -46 102 -72 10 -72 -66 0 -94 10 -161 57 -26 18 -51 33 -56 33 -6 0 -16 7 -23 15 -7 8 -40 28 -74 44 -33 16 -74 39 -89 52 -78 65 -87 77 -87 113 0 40 1 41 32 24z m1560 -60 c7 -13 11 -28 10 -35 -1 -6 2 -14 7 -18 6 -3 8 -12 5 -19 -3 -8 0 -17 5 -21 6 -3 9 -11 6 -16 -4 -5 -3 -14 1 -20 4 -6 7 -34 7 -63 0 -83 2 -83 -363 -85 -188 -1 -310 1 -310 7 0 5 -3 24 -6 41 l-6 31 259 0 c202 0 263 3 278 13 12 9 14 16 7 21 -6 4 -9 13 -6 20 3 8 0 17 -5 21 -6 3 -9 10 -6 15 3 5 1 19 -5 30 -10 19 -20 20 -166 20 l-154 0 -11 27 c-20 52 -18 53 220 53 218 0 220 0 233 -22z"/>
 <path d="M815 2704 c-39 -40 -25 -114 32 -164 19 -17 40 -29 46 -27 19 7 10 100 -13 151 -24 51 -43 62 -65 40z"/>
 </g>
<g id="layer105" fill="#2e972e" stroke="none">
 <path d="M0 2000 l0 -2000 2000 0 2000 0 0 2000 0 2000 -2000 0 -2000 0 0 -2000z m2714 727 c13 -17 30 -51 36 -74 7 -23 18 -39 24 -37 16 6 127 -108 118 -122 -5 -8 -51 -10 -154 -6 -123 4 -148 7 -148 20 0 13 17 14 125 8 69 -4 125 -5 125 -2 0 10 -62 76 -71 76 -5 0 -9 -9 -9 -21 0 -14 -5 -19 -17 -17 -14 3 -18 14 -19 55 -1 57 -18 91 -64 124 -22 17 -27 26 -19 36 15 17 41 3 73 -40z m402 20 c41 -38 52 -80 53 -204 1 -59 -2 -73 -14 -73 -12 0 -15 16 -15 84 0 47 -5 97 -11 113 -13 35 -47 73 -77 84 -13 5 -20 13 -17 19 12 19 46 10 81 -23z m625 1 c26 -19 74 -74 93 -105 4 -7 13 -35 20 -63 16 -62 9 -70 -64 -70 -64 0 -73 -5 -59 -31 6 -12 6 -19 0 -19 -5 0 -15 -2 -23 -5 -9 -4 -19 11 -31 44 -10 28 -31 64 -49 81 -28 28 -29 33 -15 47 14 14 18 11 49 -36 l33 -51 63 0 c34 0 62 4 62 10 0 51 -71 150 -138 191 -17 12 -29 25 -26 31 8 13 50 2 85 -24z m-2726 -3 c55 -32 79 -80 72 -148 -4 -42 -10 -56 -41 -84 -36 -33 -58 -39 -136 -34 -40 3 -64 16 -107 60 -38 38 -50 99 -30 156 23 68 77 77 117 21 20 -28 50 -122 53 -168 1 -22 7 -38 14 -38 51 0 111 78 98 127 -7 31 -49 74 -89 91 -23 10 -26 15 -16 27 16 19 16 19 65 -10z m990 -9 c50 -26 142 -101 156 -128 7 -14 8 -23 1 -30 -7 -7 -26 6 -61 41 -27 28 -60 55 -73 61 -13 5 -30 14 -38 18 -43 25 -62 32 -80 32 -18 0 -19 3 -8 20 14 23 41 19 103 -14z m1356 10 c71 -12 204 -141 178 -172 -15 -18 -29 -18 -29 -1 0 18 -48 71 -91 100 -45 30 -93 47 -135 47 -26 0 -34 4 -34 18 0 27 8 31 43 22 18 -5 48 -11 68 -14z m-2868 -12 c28 -26 33 -54 10 -61 -7 -3 -18 7 -24 21 -7 14 -18 26 -24 26 -29 0 -37 -29 -33 -130 3 -98 0 -110 -31 -110 -14 0 -6 213 8 240 27 48 53 52 94 14z m1171 -7 c68 -29 158 -130 141 -157 -11 -18 -23 -10 -51 33 -42 67 -126 116 -201 117 -34 0 -49 13 -37 31 9 15 86 3 148 -24z m-1344 9 c0 -11 -23 -15 -105 -18 -110 -3 -131 -12 -119 -49 2 -9 -2 -19 -10 -22 -31 -12 -24 75 7 95 7 4 60 8 120 8 85 0 107 -3 107 -14z m1137 -23 c3 -8 -16 -13 -64 -15 l-68 -3 0 -80 0 -80 58 -3 c40 -2 57 -7 54 -15 -5 -17 -249 -17 -254 1 -3 8 11 12 50 12 64 0 67 4 67 95 0 73 -2 75 -91 75 -46 0 -59 3 -59 15 0 13 21 15 152 13 107 -2 153 -7 155 -15z m1083 -13 c0 -19 -7 -20 -160 -20 -153 0 -160 1 -160 20 0 19 7 20 160 20 153 0 160 -1 160 -20z m-1847 -52 c-3 -47 -58 -148 -81 -148 -23 0 -21 20 4 57 14 21 31 57 37 81 13 48 43 56 40 10z m2307 -67 c0 -38 3 -76 6 -85 4 -11 1 -16 -10 -16 -13 0 -16 14 -16 85 0 50 4 85 10 85 6 0 10 -30 10 -69z m-1053 22 c5 -15 -55 -56 -72 -49 -25 9 -17 32 18 48 35 17 49 17 54 1z m-363 -90 c-34 -28 -41 -30 -53 -18 -8 8 -13 16 -10 18 2 2 19 15 38 30 27 23 36 25 48 15 13 -11 10 -17 -23 -45z m1761 46 c8 -11 -19 -45 -48 -61 -13 -7 -23 -6 -31 2 -8 8 -2 18 24 40 39 33 46 35 55 19z m-865 -34 c0 -12 -19 -15 -110 -15 -91 0 -110 3 -110 15 0 12 19 15 110 15 91 0 110 -3 110 -15z m-484 -6 c8 -14 -44 -58 -69 -59 -28 0 -17 31 18 51 36 21 42 22 51 8z m-1708 -16 c3 -10 -21 -13 -97 -13 -92 0 -121 7 -104 24 13 12 196 2 201 -11z m1811 -19 c-15 -16 -26 -21 -32 -15 -7 7 -2 17 14 30 32 26 46 15 18 -15z m1791 8 c0 -17 -48 -54 -55 -42 -3 6 4 19 17 30 25 21 38 25 38 12z m-1751 -41 c-14 -11 -28 -16 -33 -11 -6 6 1 17 15 29 14 11 28 16 33 11 6 -6 -1 -17 -15 -29z m1791 21 c0 -13 -30 -52 -41 -52 -14 0 -11 27 7 44 16 17 34 21 34 8z m-2844 -220 c13 -9 46 -109 46 -140 0 -12 4 -25 9 -28 4 -2 6 -11 3 -18 -3 -8 -1 -17 5 -20 6 -4 8 -13 5 -20 -3 -8 0 -17 5 -21 6 -3 9 -11 5 -16 -3 -5 0 -16 6 -24 6 -8 9 -18 6 -23 -5 -8 20 -118 32 -137 3 -5 7 -21 9 -36 1 -15 10 -48 18 -74 9 -26 18 -59 20 -73 1 -15 4 -27 5 -27 3 0 10 -47 11 -67 0 -10 4 -20 9 -23 5 -3 7 -12 4 -19 -3 -8 0 -17 5 -21 6 -3 9 -11 5 -16 -3 -5 0 -16 6 -24 20 -24 1 -35 -60 -35 -69 0 -80 10 -100 98 -7 28 -16 54 -20 57 -7 4 -13 30 -26 105 -1 8 -9 38 -17 67 -8 28 -12 54 -10 57 3 3 1 12 -5 19 -7 8 -9 17 -5 20 3 4 1 13 -6 20 -6 8 -9 21 -5 30 3 8 1 18 -5 21 -6 4 -8 13 -5 20 3 8 0 17 -5 21 -6 3 -9 11 -6 16 4 5 3 14 -1 21 -4 7 -9 22 -10 33 -1 12 -12 57 -24 101 l-22 79 -83 -3 c-81 -4 -83 -3 -103 25 -15 21 -18 33 -11 46 9 15 28 17 157 17 81 0 152 -4 158 -8z m593 -5 c8 -11 5 -19 -14 -37 -14 -13 -25 -27 -25 -31 0 -5 -16 -24 -35 -43 -19 -20 -35 -39 -35 -42 0 -4 -15 -21 -33 -38 -19 -17 -36 -36 -38 -43 -2 -6 -15 -14 -29 -18 -20 -5 -35 2 -70 34 l-45 40 28 29 c15 15 27 33 27 39 0 7 14 21 30 33 17 12 30 26 30 31 0 6 12 21 28 34 23 21 37 24 98 25 48 0 75 -4 83 -13z m236 -9 c4 -13 7 -28 6 -35 -1 -6 3 -14 9 -18 16 -10 12 -42 -6 -49 -46 -17 -153 1 -139 24 3 6 1 26 -4 46 -6 21 -8 41 -5 46 3 4 34 8 68 8 57 0 64 -2 71 -22z m831 15 c19 -13 25 -60 10 -72 -10 -9 -88 -11 -275 -9 -197 2 -262 0 -265 -9 -3 -7 6 -44 19 -82 14 -39 25 -81 25 -93 0 -13 7 -42 15 -66 9 -24 13 -48 10 -53 -8 -12 -142 -12 -149 0 -3 5 -8 25 -10 44 -3 20 -10 55 -17 79 -7 24 -12 47 -10 52 1 4 -3 14 -9 20 -5 7 -7 16 -4 19 3 3 2 12 -2 19 -4 7 -9 19 -11 28 -1 8 -5 29 -9 47 -5 26 -1 36 21 57 l26 24 312 1 c172 1 317 -2 323 -6z m300 -38 c7 -24 8 -49 3 -63 -7 -19 -15 -22 -61 -22 -29 0 -58 4 -63 8 -26 18 -45 99 -28 116 4 4 36 6 72 4 l65 -3 12 -40z m-1794 -177 c11 -7 51 -32 87 -55 36 -24 74 -43 84 -43 9 0 17 -5 17 -11 0 -5 15 -17 33 -25 36 -17 50 -25 127 -75 30 -20 75 -45 100 -57 99 -46 102 -72 10 -72 -66 0 -94 10 -161 57 -26 18 -51 33 -56 33 -6 0 -16 7 -23 15 -7 8 -40 28 -74 44 -33 16 -74 39 -89 52 -78 65 -87 77 -87 113 0 40 1 41 32 24z m1560 -60 c7 -13 11 -28 10 -35 -1 -6 2 -14 7 -18 6 -3 8 -12 5 -19 -3 -8 0 -17 5 -21 6 -3 9 -11 6 -16 -4 -5 -3 -14 1 -20 4 -6 7 -34 7 -63 0 -83 2 -83 -363 -85 -188 -1 -310 1 -310 7 0 5 -3 24 -6 41 l-6 31 259 0 c202 0 263 3 278 13 12 9 14 16 7 21 -6 4 -9 13 -6 20 3 8 0 17 -5 21 -6 3 -9 10 -6 15 3 5 1 19 -5 30 -10 19 -20 20 -166 20 l-154 0 -11 27 c-20 52 -18 53 220 53 218 0 220 0 233 -22z"/>
 <path d="M816 2701 c-25 -27 -20 -90 9 -133 28 -41 59 -63 76 -52 14 9 2 77 -26 140 -27 62 -37 69 -59 45z"/>
 </g>
<g id="layer106" fill="#6f6f6f" stroke="none">
 <path d="M0 2000 l0 -2000 2000 0 2000 0 0 2000 0 2000 -2000 0 -2000 0 0 -2000z m2714 727 c13 -17 30 -51 36 -74 7 -23 18 -39 24 -37 16 6 127 -108 118 -122 -5 -8 -51 -10 -154 -6 -123 4 -148 7 -148 20 0 13 17 14 125 8 69 -4 125 -5 125 -2 0 10 -62 76 -71 76 -5 0 -9 -9 -9 -21 0 -14 -5 -19 -17 -17 -14 3 -18 14 -19 55 -1 57 -18 91 -64 124 -22 17 -27 26 -19 36 15 17 41 3 73 -40z m402 20 c41 -38 52 -80 53 -204 1 -59 -2 -73 -14 -73 -12 0 -15 16 -15 84 0 47 -5 97 -11 113 -13 35 -47 73 -77 84 -13 5 -20 13 -17 19 12 19 46 10 81 -23z m625 1 c26 -19 74 -74 93 -105 4 -7 13 -35 20 -63 16 -62 9 -70 -64 -70 -64 0 -73 -5 -59 -31 6 -12 6 -19 0 -19 -5 0 -15 -2 -23 -5 -9 -4 -19 11 -31 44 -10 28 -31 64 -49 81 -28 28 -29 33 -15 47 14 14 18 11 49 -36 l33 -51 63 0 c34 0 62 4 62 10 0 51 -71 150 -138 191 -17 12 -29 25 -26 31 8 13 50 2 85 -24z m-2726 -3 c55 -32 79 -80 72 -148 -4 -42 -10 -56 -41 -84 -36 -33 -58 -39 -136 -34 -40 3 -64 16 -107 60 -38 38 -50 99 -30 156 23 68 77 77 117 21 20 -28 50 -122 53 -168 1 -22 7 -38 14 -38 51 0 111 78 98 127 -7 31 -49 74 -89 91 -23 10 -26 15 -16 27 16 19 16 19 65 -10z m990 -9 c50 -26 142 -101 156 -128 7 -14 8 -23 1 -30 -7 -7 -26 6 -61 41 -27 28 -60 55 -73 61 -13 5 -30 14 -38 18 -43 25 -62 32 -80 32 -18 0 -19 3 -8 20 14 23 41 19 103 -14z m1356 10 c71 -12 204 -141 178 -172 -15 -18 -29 -18 -29 -1 0 18 -48 71 -91 100 -45 30 -93 47 -135 47 -26 0 -34 4 -34 18 0 27 8 31 43 22 18 -5 48 -11 68 -14z m-2868 -12 c28 -26 33 -54 10 -61 -7 -3 -18 7 -24 21 -7 14 -18 26 -24 26 -29 0 -37 -29 -33 -130 3 -98 0 -110 -31 -110 -14 0 -6 213 8 240 27 48 53 52 94 14z m1171 -7 c68 -29 158 -130 141 -157 -11 -18 -23 -10 -51 33 -42 67 -126 116 -201 117 -34 0 -49 13 -37 31 9 15 86 3 148 -24z m-1344 9 c0 -11 -23 -15 -105 -18 -110 -3 -131 -12 -119 -49 2 -9 -2 -19 -10 -22 -31 -12 -24 75 7 95 7 4 60 8 120 8 85 0 107 -3 107 -14z m1137 -23 c3 -8 -16 -13 -64 -15 l-68 -3 0 -80 0 -80 58 -3 c40 -2 57 -7 54 -15 -5 -17 -249 -17 -254 1 -3 8 11 12 50 12 64 0 67 4 67 95 0 73 -2 75 -91 75 -46 0 -59 3 -59 15 0 13 21 15 152 13 107 -2 153 -7 155 -15z m1083 -13 c0 -19 -7 -20 -160 -20 -153 0 -160 1 -160 20 0 19 7 20 160 20 153 0 160 -1 160 -20z m-1847 -52 c-3 -47 -58 -148 -81 -148 -23 0 -21 20 4 57 14 21 31 57 37 81 13 48 43 56 40 10z m2307 -67 c0 -38 3 -76 6 -85 4 -11 1 -16 -10 -16 -13 0 -16 14 -16 85 0 50 4 85 10 85 6 0 10 -30 10 -69z m-1053 22 c5 -15 -55 -56 -72 -49 -25 9 -17 32 18 48 35 17 49 17 54 1z m-363 -90 c-34 -28 -41 -30 -53 -18 -8 8 -13 16 -10 18 2 2 19 15 38 30 27 23 36 25 48 15 13 -11 10 -17 -23 -45z m1761 46 c8 -11 -19 -45 -48 -61 -13 -7 -23 -6 -31 2 -8 8 -2 18 24 40 39 33 46 35 55 19z m-865 -34 c0 -12 -19 -15 -110 -15 -91 0 -110 3 -110 15 0 12 19 15 110 15 91 0 110 -3 110 -15z m-484 -6 c8 -14 -44 -58 -69 -59 -28 0 -17 31 18 51 36 21 42 22 51 8z m-1708 -16 c3 -10 -21 -13 -97 -13 -92 0 -121 7 -104 24 13 12 196 2 201 -11z m1811 -19 c-15 -16 -26 -21 -32 -15 -7 7 -2 17 14 30 32 26 46 15 18 -15z m1791 8 c0 -17 -48 -54 -55 -42 -3 6 4 19 17 30 25 21 38 25 38 12z m-1751 -41 c-14 -11 -28 -16 -33 -11 -6 6 1 17 15 29 14 11 28 16 33 11 6 -6 -1 -17 -15 -29z m1791 21 c0 -13 -30 -52 -41 -52 -14 0 -11 27 7 44 16 17 34 21 34 8z m-2833 -224 c10 -12 46 -153 167 -651 25 -104 44 -193 40 -198 -3 -5 -36 -9 -74 -9 -56 0 -71 3 -78 18 -5 9 -22 71 -37 137 -15 66 -51 217 -80 335 -30 118 -57 232 -61 253 l-6 37 -94 0 c-102 0 -114 7 -114 64 l0 26 164 0 c119 0 166 -3 173 -12z m593 2 c16 -10 22 -2 -96 -135 -39 -44 -79 -90 -90 -102 -10 -13 -28 -23 -40 -23 -29 0 -104 56 -104 79 0 10 34 57 76 105 l76 86 81 0 c45 0 89 -4 97 -10z m229 -8 c19 -35 24 -94 10 -103 -21 -13 -113 -11 -131 4 -18 13 -42 92 -33 107 3 6 37 10 75 10 56 0 71 -3 79 -18z m841 -1 c5 -11 10 -31 10 -45 l0 -26 -270 0 -270 0 0 -22 c0 -13 13 -79 29 -148 16 -69 27 -128 24 -132 -6 -10 -140 -10 -147 0 -2 4 -21 78 -41 164 -33 137 -36 161 -25 187 6 17 19 32 28 34 10 3 160 5 334 6 304 1 318 0 328 -18z m289 -39 c12 -46 12 -55 0 -63 -21 -13 -113 -11 -131 4 -17 12 -40 102 -30 112 4 3 38 4 77 3 l70 -3 14 -53z m-1775 -171 c17 -10 132 -78 256 -151 238 -141 263 -158 254 -171 -3 -5 -38 -9 -79 -9 -82 0 -50 -15 -344 164 -135 82 -141 89 -141 162 0 29 13 30 54 5z m1535 -40 c18 -11 62 -198 54 -229 -3 -13 -20 -32 -37 -43 -29 -18 -54 -19 -338 -19 -294 0 -308 1 -318 19 -5 11 -10 29 -10 40 0 21 4 21 263 21 175 0 267 4 274 11 7 7 7 24 -1 57 l-12 47 -158 5 c-169 5 -176 8 -176 61 0 14 3 29 7 32 10 10 436 8 452 -2z"/>
 <path d="M816 2701 c-25 -27 -20 -90 9 -133 28 -41 59 -63 76 -52 14 9 2 77 -26 140 -27 62 -37 69 -59 45z"/>
 </g>
<g id="layer107" fill="#fefefe" stroke="none">
 <path d="M0 2000 l0 -2000 2000 0 2000 0 0 2000 0 2000 -2000 0 -2000 0 0 -2000z m3110 754 c49 -44 60 -81 60 -202 0 -79 -2 -93 -15 -90 -12 2 -16 22 -18 98 -3 108 -19 147 -75 182 -26 16 -30 23 -21 34 17 20 25 18 69 -22z m-408 -11 c23 -24 41 -55 48 -84 9 -37 16 -46 29 -42 23 6 123 -101 114 -122 -6 -17 -42 -19 -206 -8 -86 5 -107 9 -107 21 0 13 18 14 125 9 69 -4 125 -3 125 1 0 5 -16 23 -35 42 l-35 34 0 -28 c0 -21 -4 -27 -17 -24 -14 2 -19 17 -24 64 -6 64 -32 114 -70 135 -16 8 -18 13 -8 25 16 20 21 18 61 -23z m1017 22 c46 -23 108 -101 134 -168 31 -80 22 -92 -66 -92 -44 0 -61 -4 -59 -12 1 -7 3 -19 5 -25 1 -7 -7 -14 -19 -16 -16 -2 -23 5 -33 39 -7 22 -30 60 -52 84 -34 37 -37 44 -24 55 18 15 43 -3 76 -57 20 -31 23 -33 81 -33 l60 0 -6 28 c-13 53 -62 117 -119 156 -39 27 -53 42 -45 48 19 11 36 10 67 -7z m-2710 -10 c16 -8 41 -29 56 -47 25 -29 27 -38 23 -95 -3 -55 -8 -68 -35 -94 -35 -36 -92 -50 -154 -39 -79 15 -130 72 -136 152 -9 117 84 166 139 73 20 -34 51 -172 42 -186 -8 -14 24 -11 55 5 79 41 61 154 -31 202 -24 12 -27 18 -17 30 14 18 23 18 58 -1z m581 0 c86 -15 134 -45 191 -118 37 -46 39 -51 24 -66 -15 -15 -18 -14 -33 9 -53 78 -126 124 -217 137 -25 3 -45 9 -45 14 0 22 14 39 29 35 9 -2 32 -7 51 -11z m419 -17 c25 -12 75 -51 110 -86 60 -60 63 -64 47 -80 -19 -18 -16 -20 -59 39 -21 28 -95 76 -154 99 -71 29 -69 26 -53 45 16 19 39 15 109 -17z m1380 0 c62 -20 173 -140 156 -168 -8 -12 -35 -13 -35 -1 0 4 -18 28 -40 53 -42 48 -108 83 -179 94 -29 5 -41 11 -41 24 0 9 2 19 5 22 7 6 86 -8 134 -24z m-2882 -17 c18 -26 20 -37 12 -47 -17 -20 -26 -17 -41 13 -35 71 -61 17 -56 -114 4 -91 4 -93 -19 -93 -23 0 -23 2 -23 114 0 100 2 116 21 140 30 39 75 33 106 -13z m-187 14 c0 -12 -17 -15 -91 -15 -107 0 -129 -9 -129 -51 0 -24 -4 -30 -17 -27 -27 5 -29 62 -4 87 19 19 33 21 131 21 91 0 110 -3 110 -15z m1145 -25 c0 -12 -15 -16 -67 -18 l-68 -3 0 -74 0 -74 53 -3 c38 -2 52 -7 52 -18 0 -13 -21 -15 -125 -15 -111 0 -125 2 -128 18 -3 14 5 17 52 17 l56 0 0 75 0 75 -70 0 c-64 0 -70 2 -70 20 0 20 5 20 158 18 132 -3 157 -5 157 -18z m1075 -10 c0 -19 -7 -20 -160 -20 -153 0 -160 1 -160 20 0 19 7 20 160 20 153 0 160 -1 160 -20z m-1840 -47 c-1 -49 -61 -153 -89 -153 -20 0 -22 21 -3 53 11 17 25 50 32 72 17 53 18 55 41 55 14 0 19 -7 19 -27z m2310 -83 c0 -83 -1 -90 -20 -90 -19 0 -20 7 -20 90 0 83 1 90 20 90 19 0 20 -7 20 -90z m-1075 4 c-16 -13 -39 -23 -50 -22 -34 5 -27 32 12 55 34 19 40 20 53 7 13 -14 12 -18 -15 -40z m-349 -61 c-35 -33 -39 -34 -55 -19 -15 16 -13 19 24 51 35 30 42 32 55 19 13 -13 11 -19 -24 -51z m1764 47 c12 -9 8 -16 -25 -45 -36 -31 -42 -33 -55 -19 -13 14 -11 18 18 45 36 32 40 33 62 19z m-860 -35 c0 -12 -19 -15 -115 -15 -96 0 -115 3 -115 15 0 12 19 15 115 15 96 0 115 -3 115 -15z m-494 -7 c9 -14 -40 -58 -67 -58 -28 0 -23 25 9 49 31 23 48 26 58 9z m-1706 -13 c0 -12 -18 -15 -99 -15 -91 0 -121 7 -104 24 3 3 51 6 105 6 80 0 98 -3 98 -15z m1833 8 c4 -3 2 -12 -4 -20 -14 -16 2 -18 19 -1 9 9 13 7 18 -6 5 -12 -1 -23 -17 -34 -29 -21 -45 -22 -41 -3 2 8 -3 11 -11 8 -8 -3 -20 0 -26 6 -8 8 -4 17 16 34 30 24 36 26 46 16z m1767 -29 c0 -11 6 -14 20 -9 25 8 27 -11 3 -37 -20 -22 -33 -23 -33 -3 0 18 -12 19 -28 3 -20 -20 -25 18 -5 41 21 25 43 27 43 5z m-2793 -236 c10 -12 46 -153 167 -651 25 -104 44 -193 40 -198 -3 -5 -36 -9 -74 -9 -56 0 -71 3 -78 18 -5 9 -22 71 -37 137 -15 66 -51 217 -80 335 -30 118 -57 232 -61 253 l-6 37 -94 0 c-102 0 -114 7 -114 64 l0 26 164 0 c119 0 166 -3 173 -12z m593 2 c16 -10 22 -2 -96 -135 -39 -44 -79 -90 -90 -102 -10 -13 -28 -23 -40 -23 -29 0 -104 56 -104 79 0 10 34 57 76 105 l76 86 81 0 c45 0 89 -4 97 -10z m229 -8 c19 -35 24 -94 10 -103 -21 -13 -113 -11 -131 4 -18 13 -42 92 -33 107 3 6 37 10 75 10 56 0 71 -3 79 -18z m841 -1 c5 -11 10 -31 10 -45 l0 -26 -270 0 -270 0 0 -22 c0 -13 13 -79 29 -148 16 -69 27 -128 24 -132 -6 -10 -140 -10 -147 0 -2 4 -21 78 -41 164 -33 137 -36 161 -25 187 6 17 19 32 28 34 10 3 160 5 334 6 304 1 318 0 328 -18z m289 -39 c12 -46 12 -55 0 -63 -21 -13 -113 -11 -131 4 -17 12 -40 102 -30 112 4 3 38 4 77 3 l70 -3 14 -53z m-1775 -171 c17 -10 132 -78 256 -151 238 -141 263 -158 254 -171 -3 -5 -38 -9 -79 -9 -82 0 -50 -15 -344 164 -135 82 -141 89 -141 162 0 29 13 30 54 5z m1535 -40 c18 -11 62 -198 54 -229 -3 -13 -20 -32 -37 -43 -29 -18 -54 -19 -338 -19 -294 0 -308 1 -318 19 -5 11 -10 29 -10 40 0 21 4 21 263 21 175 0 267 4 274 11 7 7 7 24 -1 57 l-12 47 -158 5 c-169 5 -176 8 -176 61 0 14 3 29 7 32 10 10 436 8 452 -2z"/>
 <path d="M814 2685 c-18 -28 -13 -84 11 -118 17 -24 66 -58 76 -52 9 6 -7 89 -26 142 -20 51 -40 60 -61 28z"/>
 </g>

</svg>